<?xml version="1.0" encoding="utf-8"?>
<!-- Generator: Adobe Illustrator 22.1.0, SVG Export Plug-In . SVG Version: 6.00 Build 0)  -->
<svg version="1.1" id="Layer_1" xmlns="http://www.w3.org/2000/svg" xmlns:xlink="http://www.w3.org/1999/xlink" x="0px" y="0px"
	 width="617px" height="2161.2px" viewBox="0 0 617 2161.2" style="enable-background:new 0 0 617 2161.2;" xml:space="preserve">
<style type="text/css">
	.st0{fill:none;stroke:#FFFFFF;stroke-width:2;stroke-miterlimit:10;}
</style>
<path class="st0" d="M308.5,2161.2c0-39.3,15-78.7,45-108.7c21.3-21.3,47.4-35.1,74.8-41.3l19.7-4.9c97.1-28.4,168-118.1,168-224.4
	c0-129.1-104.7-233.7-233.8-233.7H234.7c-129,0-233.7-104.7-233.7-233.8s104.7-233.8,233.8-233.8h147.4
	c129.1,0,233.8-104.7,233.8-233.8S511.3,613,382.3,613H234.8C105.7,613,1,508.4,1,379.3c0-106.3,70.9-196,168-224.4l19.7-4.9
	c27.4-6.2,53.5-20,74.8-41.3c30-30,45-69.4,45-108.7"/>
</svg>
