<?xml version="1.0" encoding="utf-8"?>
<!-- Generator: Adobe Illustrator 22.1.0, SVG Export Plug-In . SVG Version: 6.00 Build 0)  -->
<svg version="1.1" id="Layer_1" xmlns="http://www.w3.org/2000/svg" xmlns:xlink="http://www.w3.org/1999/xlink" x="0px" y="0px"
	 width="135.6px" height="135.6px" viewBox="0 0 135.6 135.6" style="enable-background:new 0 0 135.6 135.6;" xml:space="preserve"
	>
<style type="text/css">
	.st0{fill:none;stroke:#FFFFFF;stroke-width:2;stroke-linecap:round;stroke-linejoin:round;stroke-miterlimit:10;}
</style>
<path class="st0" d="M76,67.6c0,4.5-3.7,8.2-8.2,8.2s-8.2-3.7-8.2-8.2s3.7-8.2,8.2-8.2S76,63.1,76,67.6z"/>
<path class="st0" d="M71.2,80.6c4.6-1.3,8.1-4.8,9.4-9.4c1.4,0.3,2.9,1,4,2.1c0.7,0.7,1.2,1.8,1.5,3.2c0.3,1.4,0.5,3.1,0.6,4.8
	c0,0.4,0,0.7,0.1,1.1c0.1,1.3,0.1,2.6,0.3,3.7c0.1,0.4,0.1,0.8,0.2,1.2c-0.4-0.1-0.8-0.1-1.1-0.2c-1.2-0.2-2.6-0.2-3.9-0.3
	c-0.3,0-0.6,0-0.9,0c-1.7-0.1-3.3-0.2-4.8-0.5c-1.4-0.3-2.5-0.8-3.2-1.4C72.2,83.5,71.5,82.1,71.2,80.6z"/>
<path class="st0" d="M55,71.2c1.3,4.7,5.2,8.3,10,9.4c-0.3,1.4-1,2.9-2.1,3.9c-0.7,0.7-1.8,1.2-3.3,1.5c-1.4,0.3-3.1,0.5-4.8,0.6
	c-0.4,0-0.7,0-1.1,0.1c-1.3,0.1-2.6,0.1-3.7,0.3c-0.3,0-0.7,0.1-1,0.2c0.1-0.4,0.1-0.7,0.2-1.1c0.2-1.2,0.2-2.6,0.3-3.9
	c0-0.3,0-0.6,0-0.9c0.1-1.7,0.2-3.3,0.5-4.8c0.3-1.4,0.8-2.5,1.5-3.2c0,0,0,0,0.1-0.1C52.6,72.2,53.7,71.5,55,71.2z"/>
<path class="st0" d="M64.4,54.7c-4.6,1.3-8.1,4.8-9.4,9.4c-1.4-0.3-2.9-1-4-2.1c-0.7-0.7-1.2-1.8-1.5-3.3c-0.3-1.4-0.5-3.1-0.6-4.8
	c0-0.4,0-0.7-0.1-1.1c-0.1-1.3-0.1-2.6-0.3-3.8c0-0.4-0.1-0.7-0.2-1.1c0.4,0.1,0.7,0.1,1.1,0.2c1.2,0.2,2.6,0.2,3.9,0.3
	c0.3,0,0.6,0,0.9,0c1.7,0.1,3.3,0.2,4.8,0.5c1.4,0.3,2.5,0.8,3.2,1.4C63.4,51.8,64.1,53.2,64.4,54.7z"/>
<path class="st0" d="M70.6,54.5c0.3-1.4,1-2.9,2.1-3.9c0.7-0.7,1.8-1.2,3.3-1.5c1.4-0.3,3.1-0.5,4.8-0.6c0.4,0,0.7,0,1.1-0.1
	c1.3-0.1,2.6-0.1,3.7-0.3c0.3,0,0.7-0.1,1-0.2c-0.1,0.4-0.1,0.7-0.2,1.1c-0.2,1.2-0.2,2.6-0.3,3.9c0,0.3,0,0.6,0,0.9
	c-0.1,1.7-0.2,3.3-0.5,4.8c-0.3,1.4-0.8,2.5-1.5,3.2c0,0,0,0-0.1,0.1c-0.9,1-2,1.7-3.3,2C79.3,59.3,75.4,55.6,70.6,54.5z"/>
<path class="st0" d="M76,67.6c0,4.5-3.7,8.2-8.2,8.2s-8.2-3.7-8.2-8.2s3.7-8.2,8.2-8.2S76,63.1,76,67.6z"/>
<path class="st0" d="M65.9,3.5c0.6-0.8,1.2-1.7,1.7-2.5c0.5,0.8,1,1.7,1.7,2.5c1.2,1.6,2.7,3.3,4.3,5C74,9,74.4,9.4,74.8,9.9
	c2,2.2,3.9,4.5,5.3,6.7c1.4,2.2,2.3,4.3,2.3,6.2c0,2.3-0.6,4.7-1.6,6.6c-0.2,0.4-0.1,0.9,0.3,1.2c0.4,0.3,0.9,0.3,1.2,0
	c2.1-1.6,3.8-3.6,5.1-5.7c1.1,2.5,1.6,5.1,1.6,8.1c0,3.7-1,7.3-2.7,10.2c-0.3,0.1-0.9,0.2-1.6,0.3c-0.8,0.1-1.8,0.1-2.6,0.1
	c0,0,0,0,0,0c-2.1,0.1-4.4,0.3-6.6,0.8c-2.1,0.5-4.2,1.3-5.8,2.9c-0.9,0.9-1.5,1.9-2.1,3c-0.5-0.8-1.1-1.6-1.9-2.3
	c-1.5-1.7-3.6-2.5-5.8-3c-2.1-0.5-4.4-0.6-6.4-0.7l-0.1,0c-0.5-0.1-1.2-0.1-1.8-0.2c-0.3,0-0.5,0-0.8-0.1c-0.7-0.1-1.4-0.1-1.9-0.3
	c-1.9-3.1-3-6.8-3-10.8c0-2.9,0.5-5.6,1.6-8.1c1.4,2.2,3.2,4.2,5.1,5.7c0.4,0.3,0.9,0.3,1.3,0c0.4-0.3,0.5-0.8,0.3-1.2
	c-1-1.9-1.6-4.3-1.6-6.6c0-1.9,0.9-4,2.3-6.3c1.4-2.2,3.4-4.5,5.3-6.7c0.4-0.5,0.9-1,1.3-1.4C63.2,6.6,64.7,5,65.9,3.5z"/>
<path class="st0" d="M104.9,53c-0.3,0.4-0.3,0.9,0,1.3c0.3,0.4,0.8,0.5,1.2,0.3c1.9-1,4.3-1.6,6.6-1.6c1.9,0,4,0.9,6.3,2.3
	c2.2,1.4,4.5,3.4,6.7,5.3c0.5,0.4,1,0.9,1.4,1.3c1.7,1.5,3.4,3,4.9,4.2c0.8,0.6,1.7,1.2,2.4,1.7c-0.8,0.5-1.7,1-2.5,1.7
	c-1.5,1.2-3.2,2.6-4.9,4.1c-0.5,0.4-1,0.9-1.5,1.3c-2.2,2-4.5,3.8-6.7,5.2c-2.2,1.4-4.3,2.2-6.2,2.1c0,0,0,0,0,0
	c-2.3,0-4.7-0.6-6.6-1.6c-0.4-0.2-0.9-0.1-1.2,0.3c-0.3,0.4-0.3,0.9,0,1.2c1.6,2.1,3.6,3.8,5.7,5.1c-2.5,1.1-5.1,1.6-8.1,1.6
	c-3.4,0-6.6-0.7-9.5-2.1c0-0.2-0.1-0.4-0.2-0.6c-0.1-0.3-0.3-0.6-0.5-0.8c-0.1-0.3-0.2-0.9-0.3-1.6c-0.1-0.8-0.1-1.8-0.1-2.6
	c0,0,0,0,0,0c-0.1-2.1-0.3-4.4-0.8-6.6c-0.5-2.1-1.3-4.2-2.9-5.8c-0.7-0.7-1.3-1.2-2-1.6c0.7-0.4,1.3-0.9,2-1.6
	c1.7-1.5,2.5-3.6,3-5.8c0.5-2.1,0.6-4.4,0.7-6.4c0,0,0-0.1,0-0.1c0.1-0.6,0.1-1.2,0.2-1.8c0-0.3,0-0.6,0.1-0.9
	c0-0.4,0.1-0.8,0.1-1.1c0.1-0.3,0.1-0.5,0.2-0.6c0,0,0,0,0,0c3.1-1.7,6.5-2.6,10.1-2.6c2.9,0,5.6,0.5,8.1,1.6
	C108.5,49.3,106.5,51.1,104.9,53z"/>
<path class="st0" d="M87.9,110.7c-1.4-2.2-3.2-4.2-5.1-5.7c-0.4-0.3-0.9-0.3-1.3,0c-0.4,0.3-0.5,0.8-0.3,1.2c1,1.9,1.6,4.3,1.6,6.6
	c0,1.9-0.9,4-2.3,6.3c-1.4,2.2-3.4,4.5-5.3,6.7c-0.4,0.5-0.9,1-1.3,1.4c-1.5,1.7-3,3.4-4.2,4.9c-0.6,0.8-1.2,1.7-1.7,2.4
	c-0.5-0.8-1-1.7-1.7-2.5c-1.2-1.6-2.7-3.3-4.3-5c-0.4-0.4-0.8-0.9-1.2-1.3c-2-2.2-3.9-4.5-5.3-6.7c-1.4-2.2-2.3-4.3-2.3-6.2
	c0-2.3,0.6-4.7,1.6-6.6c0.2-0.4,0.1-0.9-0.3-1.2c-0.4-0.3-0.9-0.3-1.2,0c-2.1,1.6-3.8,3.6-5.1,5.7c-1.1-2.5-1.6-5.1-1.6-8.1
	c0-3.9,0.9-7.6,2.8-10.7c0.3-0.1,0.8-0.2,1.5-0.3c0.8-0.1,1.8-0.1,2.6-0.1c0,0,0,0,0,0c2.1-0.1,4.4-0.3,6.6-0.8
	c2.1-0.5,4.2-1.3,5.8-2.9c0.9-0.9,1.5-1.9,2.1-3c0.5,0.8,1.1,1.6,1.9,2.3c1.5,1.7,3.6,2.5,5.8,3c2.1,0.5,4.4,0.6,6.4,0.7
	c0,0,0.1,0,0.1,0c0.5,0.1,1.1,0.1,1.7,0.2c0.2,0,0.5,0,0.7,0.1c0.7,0.1,1.3,0.1,1.9,0.3c2.1,3.3,3.2,7.2,3.2,11.2
	C89.5,105.5,89,108.2,87.9,110.7z"/>
<path class="st0" d="M24.9,87.9c2.2-1.4,4.2-3.2,5.7-5.1c0.3-0.4,0.3-0.9,0-1.3c-0.3-0.4-0.8-0.5-1.2-0.3c-1.9,1-4.3,1.6-6.6,1.6
	c-1.9,0-4-0.9-6.3-2.3c-2.2-1.4-4.5-3.4-6.7-5.3c-0.5-0.4-1-0.9-1.4-1.3c-1.7-1.5-3.4-3-4.9-4.2C2.6,69,1.8,68.5,1,68
	c0.8-0.5,1.7-1,2.5-1.7c1.6-1.2,3.3-2.7,5-4.3c0.4-0.4,0.9-0.8,1.3-1.2c2.2-2,4.5-3.9,6.7-5.3c2.2-1.4,4.3-2.3,6.2-2.3
	c2.3,0,4.7,0.6,6.6,1.6c0.4,0.2,0.9,0.1,1.2-0.3c0.3-0.4,0.3-0.9,0-1.2c-1.6-2.1-3.6-3.8-5.7-5.1c2.5-1.1,5.1-1.6,8.1-1.6
	c3.7,0,6.9,0.9,9.9,2.4c0.1,0.1,0.1,0.2,0.2,0.4c0.1,0.1,0.2,0.3,0.3,0.5c0.1,0.3,0.2,0.9,0.3,1.7c0.1,0.8,0.1,1.8,0.1,2.6
	c0,0,0,0,0,0c0.1,2.1,0.3,4.4,0.8,6.6c0.5,2.1,1.3,4.2,2.9,5.8c0.7,0.7,1.3,1.2,2,1.6c-0.7,0.4-1.3,0.9-2,1.6
	c-1.7,1.5-2.5,3.6-3,5.8c-0.5,2.1-0.6,4.4-0.7,6.4l0,0.1c-0.1,0.6-0.1,1.2-0.2,1.8c0,0.3,0,0.6-0.1,0.9c0,0.4-0.1,0.8-0.1,1.1
	c0,0.2-0.1,0.4-0.1,0.5c-0.2,0.2-0.2,0.4-0.3,0.6c0,0.1-0.1,0.2-0.1,0.3c0,0,0,0,0,0c-3.1,1.5-6.4,2.4-10,2.4
	C30.1,89.5,27.4,89,24.9,87.9z"/>
</svg>
