<?xml version="1.0" encoding="utf-8"?>
<!-- Generator: Adobe Illustrator 22.1.0, SVG Export Plug-In . SVG Version: 6.00 Build 0)  -->
<svg version="1.1" id="Layer_1" xmlns="http://www.w3.org/2000/svg" xmlns:xlink="http://www.w3.org/1999/xlink" x="0px" y="0px"
	 width="617px" height="1693.5px" viewBox="0 0 617 1693.5" style="enable-background:new 0 0 617 1693.5;" xml:space="preserve">
<style type="text/css">
	.st0{fill:none;stroke:#FFFFFF;stroke-width:2;stroke-miterlimit:10;}
</style>
<g>
	<path class="st0" d="M308.5,0c0,39.3-15,78.7-45,108.7c-21.3,21.3-47.4,35.1-74.8,41.3l-19.7,4.9C71.9,183.3,1,273,1,379.3
		C1,508.4,105.7,613,234.8,613h147.5C511.3,613,616,717.7,616,846.8c0,129.1-104.7,233.8-233.8,233.8l-147.5,0
		C105.7,1080.5,1,1185.2,1,1314.3c0,106.2,70.9,195.9,167.9,224.4l19.7,4.9c27.4,6.2,53.5,19.9,74.8,41.3c30,30,45,69.4,45,108.7"/>
</g>
</svg>
