<svg width="277" height="46" viewBox="0 0 277 46" fill="none" xmlns="http://www.w3.org/2000/svg">
<g clip-path="url(#clip0)">
<path d="M30.7041 37.767H38.1184V22.976H30.7041V37.767Z" stroke="white" stroke-width="2" stroke-miterlimit="10"/>
<path d="M30.7041 23.025H38.1184V8.23403L30.7041 8.23403V23.025Z" stroke="white" stroke-width="2" stroke-miterlimit="10"/>
<path d="M23.24 23.025H30.6543L30.6543 8.23403L23.24 8.23403V23.025Z" stroke="white" stroke-width="2" stroke-miterlimit="10"/>
<path d="M38.0195 23.025H45.4338V8.23403L38.0195 8.23403V23.025Z" stroke="white" stroke-width="2" stroke-miterlimit="10"/>
<path d="M82.6525 37.767H90.0669V22.976H82.6525V37.767Z" stroke="white" stroke-width="2" stroke-miterlimit="10"/>
<path d="M82.6525 23.025H90.0669V8.23403L82.6525 8.23403V23.025Z" stroke="white" stroke-width="2" stroke-miterlimit="10"/>
<path d="M75.3366 23.025H82.751V8.23403L75.3366 8.23403V23.025Z" stroke="white" stroke-width="2" stroke-miterlimit="10"/>
<path d="M90.1162 23.025H97.5305V8.23403L90.1162 8.23403V23.025Z" stroke="white" stroke-width="2" stroke-miterlimit="10"/>
<path d="M134.749 37.767H142.164V22.976H134.749V37.767Z" stroke="white" stroke-width="2" stroke-miterlimit="10"/>
<path d="M134.749 23.025H142.164V8.23403L134.749 8.23403V23.025Z" stroke="white" stroke-width="2" stroke-miterlimit="10"/>
<path d="M127.285 23.025H134.699V8.23403L127.285 8.23403V23.025Z" stroke="white" stroke-width="2" stroke-miterlimit="10"/>
<path d="M142.213 23.025H149.627V8.23403L142.213 8.23403V23.025Z" stroke="white" stroke-width="2" stroke-miterlimit="10"/>
<path d="M186.846 37.767H194.26V22.976H186.846V37.767Z" stroke="white" stroke-width="2" stroke-miterlimit="10"/>
<path d="M186.846 23.025H194.26V8.23403L186.846 8.23403V23.025Z" stroke="white" stroke-width="2" stroke-miterlimit="10"/>
<path d="M179.382 23.025H186.796V8.23403L179.382 8.23403V23.025Z" stroke="white" stroke-width="2" stroke-miterlimit="10"/>
<path d="M194.31 23.025H201.724V8.23403L194.31 8.23403V23.025Z" stroke="white" stroke-width="2" stroke-miterlimit="10"/>
<path d="M238.943 37.767H246.357V22.976H238.943V37.767Z" stroke="white" stroke-width="2" stroke-miterlimit="10"/>
<path d="M238.943 23.025H246.357V8.23403L238.943 8.23403V23.025Z" stroke="white" stroke-width="2" stroke-miterlimit="10"/>
<path d="M231.479 23.025H238.893V8.23403L231.479 8.23403V23.025Z" stroke="white" stroke-width="2" stroke-miterlimit="10"/>
<path d="M246.407 23.025H253.821V8.23403L246.407 8.23403V23.025Z" stroke="white" stroke-width="2" stroke-miterlimit="10"/>
<path d="M0 8.13507H277" stroke="white" stroke-width="2" stroke-miterlimit="10"/>
<path d="M0 0.739563H277" stroke="white" stroke-width="2" stroke-miterlimit="10"/>
<path d="M20.6118 45.2604H256.388" stroke="white" stroke-width="2" stroke-miterlimit="10"/>
<path d="M20.6118 37.8649H256.388" stroke="white" stroke-width="2" stroke-miterlimit="10"/>
</g>
<defs>
<clipPath id="clip0">
<rect width="277" height="46" fill="white"/>
</clipPath>
</defs>
</svg>
